<svg xmlns="http://www.w3.org/2000/svg" viewBox="0 0 240 240" role="img" aria-labelledby="titulo descripcion">
  <title id="titulo">Alumno de gimnasio</title>
  <desc id="descripcion">Silueta genérica de una persona entrenando con una pesa</desc>
  <circle cx="120" cy="120" r="116" fill="#f2f2f5"/>
  <g fill="#34303a">
    <circle cx="120" cy="70" r="30"/>
    <path d="M75 196c2-49 20-82 45-82s43 33 45 82H75z"/>
    <path d="M76 122c-13 8-24 21-32 38l20 9c7-14 15-23 25-29l-13-18zm88 0c13 8 24 21 32 38l-20 9c-7-14-15-23-25-29l13-18z"/>
    <rect x="30" y="101" width="180" height="12" rx="6"/>
    <rect x="22" y="88" width="12" height="38" rx="5"/>
    <rect x="8" y="94" width="12" height="26" rx="5"/>
    <rect x="206" y="88" width="12" height="38" rx="5"/>
    <rect x="220" y="94" width="12" height="26" rx="5"/>
  </g>
  <path d="M94 112c7 7 16 11 26 11s19-4 26-11" fill="none" stroke="#7468b5" stroke-width="7" stroke-linecap="round"/>
</svg>
